<?xml version="1.0" encoding="utf-8"?>
<!-- Generator: Adobe Illustrator 23.0.1, SVG Export Plug-In . SVG Version: 6.00 Build 0)  -->
<svg version="1.1" id="图层_1" xmlns="http://www.w3.org/2000/svg" xmlns:xlink="http://www.w3.org/1999/xlink" x="0px" y="0px"
	 viewBox="0 0 191.26 42.54" style="enable-background:new 0 0 191.26 42.54;" xml:space="preserve">
<style type="text/css">
	.st0{fill:#E95504;}
</style>
<g>
	<g>
		<g>
			<path class="st0" d="M191.19,14.94C189.72,1.5,167.06-3.9,140.64,3.02c-7.22,1.89-13.97,4.46-19.94,7.56
				c-1.88,0.97-3.65,2.07-5.35,3.15l-0.31,0.22c0,0-0.02,0.02-0.03,0.03c-0.1,0.1-0.1,0.27,0,0.38c0.09,0.09,0.22,0.1,0.32,0.04
				c5.88-3.07,12.53-5.67,19.64-7.53c26.14-6.85,48.55-1.17,50.07,12.66c0.48,4.42-1.23,9.15-4.63,13.75c0,0-0.03,0.04-0.04,0.06
				c-0.05,0.07-0.09,0.12-0.11,0.19c-0.06,0.18-0.03,0.38,0.11,0.52c0.17,0.17,0.42,0.19,0.61,0.07c0.03-0.02,0.07-0.05,0.11-0.08
				c0.01-0.01,0.2-0.15,0.28-0.22C188.1,27.68,191.85,21,191.19,14.94z"/>
		</g>
		<g>
			<polygon class="st0" points="103.64,28.9 106.75,42.07 112.56,42.07 109.44,28.9 			"/>
		</g>
		<g>
			<path class="st0" d="M112.26,16.19c0.01-0.01,0.09-0.07,0.13-0.1c0,0,0.15-0.11,0.15-0.24c0-0.15-0.12-0.28-0.27-0.27
				c-0.04,0-0.07,0.01-0.11,0.02c0,0,0,0,0,0c-16.58,6.99-21.24,26.47-21.24,26.47l6,0C101.95,25.84,108.66,18.9,112.26,16.19z"/>
		</g>
		<g>
			<polygon class="st0" points="21.09,17.06 15.54,17.06 14.74,18.37 2.73,18.37 2.26,22.52 7.18,22.52 7.35,21.1 27.23,21.1 
				27.06,22.52 31.76,22.52 32.24,18.37 20.43,18.37 			"/>
		</g>
		<g>
			<path class="st0" d="M1.7,27.32h12.14l-0.41,3.55H1.29l-0.34,2.96h12.14l-0.64,5.56H0.31L0,42.08h27.14
				c1.78,0,2.45-0.68,2.67-2.63l0.29-2.54h-4.65l-0.17,1.45c0,0-0.1,1.03-0.96,1.03h-6.65l0.64-5.56h12.14l0.34-2.96H18.66
				l0.41-3.55h12.14l0.34-2.96H2.04L1.7,27.32z"/>
		</g>
		<g>
			<path class="st0" d="M44.77,25.88l1.26-6.32l0.29-2.5h-9.36l-2.88,25.02h4.09l2.52-21.84H42l-1.31,5.64h0.66L39.6,41.02h1.45
				c1.74,0.09,2.67-0.74,2.79-2.5l1.46-12.64H44.77z"/>
		</g>
		<g>
			<path class="st0" d="M58.93,17.06h-4.3l-0.15,1.32h-7.17l-0.34,2.96h7.17l-0.47,4.1H46.5l-0.34,2.96h7.17l-1.24,10.77h-3.22
				l0.93-8.09h-3.95l-1.27,11.01h16.59c1.75,0.09,2.66-0.66,2.76-2.24l1.01-8.77h-4.08l-0.78,6.77c-0.03,0.97-0.47,1.41-1.34,1.32
				h-2.36l1.24-10.77h7.63l0.34-2.96h-7.63l0.47-4.1h7.63l0.34-2.96h-7.63L58.93,17.06z"/>
		</g>
		<g>
			<g>
				<path class="st0" d="M87.88,28.06c1.39-0.73,2.34-2.61,2.5-4.07c0.46-3.99-2.59-6.49-6.43-6.49h-8.22L72.91,42h9.25
					c4.61,0,8.7-2.84,9.25-7.6C91.76,31.44,89.88,28.71,87.88,28.06z M80.65,21.88h1.88c1.38,0,2.6,0.73,2.4,2.5
					c-0.2,1.77-1.59,2.46-2.97,2.46h-1.88L80.65,21.88z M85.65,34.4c-0.25,2.19-2.13,3.15-3.97,3.15h-2.84l0.73-6.34h2.84
					C84.25,31.21,85.9,32.25,85.65,34.4z"/>
			</g>
		</g>
		<g>
			<polygon class="st0" points="148.51,17.5 142.56,17.5 139.73,42 155.51,42 156.1,36.89 146.27,36.89 			"/>
		</g>
		<g>
			<path class="st0" d="M172.52,33.09c-0.29,2.5-2.41,4.22-5.25,4.22c-2.84,0-4.52-1.73-4.24-4.22l1.8-15.59h-5.95l-1.86,16.13
				c-0.63,5.45,3.73,8.91,9.57,8.91c5.88,0,11.04-3.46,11.66-8.91l1.86-16.13h-5.8L172.52,33.09z"/>
		</g>
		<g>
			<g>
				<path class="st0" d="M126.7,17.12c-6.99,0-13.33,5.69-14.14,12.68c-0.81,6.99,4.23,12.68,11.21,12.68
					c6.99,0,13.33-5.69,14.14-12.68C138.72,22.8,133.69,17.12,126.7,17.12z M132.56,29.79c-0.47,4.04-4.13,7.33-8.18,7.33
					c-4.04,0-6.95-3.29-6.48-7.33c0.47-4.04,4.13-7.33,8.18-7.33C130.12,22.46,133.03,25.75,132.56,29.79z"/>
			</g>
		</g>
	</g>
</g>
</svg>
